<svg width="120" height="145" viewBox="0 0 120 145" fill="none" xmlns="http://www.w3.org/2000/svg">
<g filter="url(#filter0_d)">
<path d="M76.7188 0C76.7188 9.31784 69.1667 16.8718 59.8496 16.875H59.8379C50.5208 16.8718 42.9688 9.31784 42.9688 0H13.4375C8.7776 0 5 3.7776 5 8.4375V126.562C5 131.222 8.77759 135 13.4375 135H42.9688C42.9688 125.68 50.5239 118.125 59.8438 118.125C69.1636 118.125 76.7188 125.68 76.7188 135L106.25 135C110.91 135 114.688 131.222 114.688 126.562V8.4375C114.688 3.7776 110.91 0 106.25 0H76.7188Z" fill="#004CB8"/>
<g clip-path="url(#clip0)">
<path fill-rule="evenodd" clip-rule="evenodd" d="M40.396 41.0688L41.8218 42.4946L44.5457 35.22C44.9981 34.0124 45.8087 32.972 46.869 32.238C47.9292 31.504 49.1885 31.1116 50.4759 31.1133H69.2114C70.4993 31.1133 71.7567 31.5065 72.8155 32.2404C73.8739 32.9742 74.6831 34.0137 75.1353 35.2202L77.861 42.4993L79.2915 41.0688C79.5882 40.7721 79.9906 40.6054 80.4102 40.6054H83.5742C84.4479 40.6054 85.1562 41.3137 85.1562 42.1875C85.1562 43.0612 84.4479 43.7695 83.5742 43.7695H81.0655L79.4834 45.3515L83.5752 49.4434C84.0164 49.8848 84.3733 50.3946 84.6356 50.9481C84.6622 50.9989 84.686 51.0514 84.7071 51.1053C85.0001 51.7784 85.1558 52.5108 85.1562 53.2596V58.0078C85.1562 59.2665 84.6563 60.4738 83.7662 61.3639C83.2609 61.8692 82.6534 62.2487 81.9922 62.4825V64.3359C81.9922 65.5946 81.4922 66.802 80.6022 67.692C79.7121 68.582 78.5048 69.082 77.2461 69.082C75.9874 69.082 74.78 68.582 73.89 67.692C73 66.802 72.5 65.5946 72.5 64.3359V62.7539H47.1875V64.3359C47.1875 65.5946 46.6874 66.8019 45.7974 67.692C44.9074 68.582 43.7002 69.082 42.4414 69.082C41.1827 69.082 39.9755 68.582 39.0854 67.692C38.1954 66.8019 37.6953 65.5946 37.6953 64.3359V62.4825C37.0342 62.2487 36.4267 61.8692 35.9214 61.3639C35.0313 60.4738 34.5312 59.2665 34.5312 58.0078V53.2586C34.5317 52.5126 34.6865 51.7827 34.9779 51.1113C35.0002 51.0532 35.0259 50.9968 35.0547 50.9422C35.3168 50.391 35.6728 49.8831 36.1126 49.443L40.2041 45.3515L38.622 43.7695H36.1133C35.2395 43.7695 34.5312 43.0612 34.5312 42.1875C34.5312 41.3137 35.2395 40.6054 36.1133 40.6054H39.2773C39.6969 40.6054 40.0993 40.7721 40.396 41.0688ZM80.4102 59.5898C80.8298 59.5898 81.2323 59.4231 81.5289 59.1265C81.8255 58.8299 81.9922 58.4274 81.9922 58.0078V53.2617H75.3923C74.9731 53.2618 74.5709 53.4284 74.2747 53.7243L72.0366 55.9624C71.4188 56.5802 70.4171 56.5802 69.7993 55.9624C69.1815 55.3446 69.1815 54.3429 69.7993 53.7251L72.0378 51.4866C72.9274 50.5975 74.1338 50.0979 75.392 50.0976H79.7549L76.5908 46.9336H43.0967L39.9326 50.0976H44.2957C45.5535 50.0979 46.7598 50.5975 47.6499 51.487L49.8879 53.7251C50.5057 54.3429 50.5057 55.3446 49.8879 55.9624C49.2701 56.5802 48.2684 56.5802 47.6506 55.9624L45.4129 53.7247C45.1163 53.4283 44.7142 53.2618 44.2953 53.2617H37.6953V58.0078C37.6953 58.4274 37.862 58.8299 38.1587 59.1265C38.4553 59.4232 38.8577 59.5898 39.2773 59.5898H80.4102ZM75.6641 62.7539V64.3359C75.6641 64.7556 75.8307 65.1581 76.1273 65.4547C76.4239 65.7513 76.8264 65.9179 77.2461 65.9179C77.6657 65.9179 78.0682 65.7513 78.3648 65.4547C78.6614 65.1581 78.8281 64.7556 78.8281 64.3359V62.7539H75.6641ZM40.8594 62.7539H44.0234V64.3359C44.0234 64.7555 43.8567 65.158 43.5601 65.4547C43.2634 65.7513 42.8611 65.9179 42.4414 65.9179C42.0218 65.9179 41.6194 65.7513 41.3227 65.4547C41.0261 65.158 40.8594 64.7555 40.8594 64.3359V62.7539ZM44.723 43.7695H74.958L72.1723 36.3301C71.9463 35.7271 71.5417 35.2074 71.0129 34.8408C70.4836 34.4739 69.8551 34.2773 69.2114 34.2773L50.4738 34.2773C49.8293 34.2765 49.1999 34.4726 48.6699 34.8395C48.14 35.2064 47.7348 35.7264 47.5088 36.3298L44.723 43.7695Z" fill="white"/>
<path d="M37.4976 96.4251V93.0509H29.3773V96.4251H37.4976ZM45.6796 101.938H49.4122V84.1026H45.692L41.0818 87.279V90.752L45.4572 87.7363H45.6796V101.938ZM61.228 102.395C65.6404 102.395 68.3101 98.897 68.3101 93.0015C68.3101 87.0812 65.6033 83.6453 61.228 83.6453C56.8404 83.6453 54.146 87.0812 54.146 92.9891C54.146 98.9094 56.8156 102.395 61.228 102.395ZM61.228 99.3543C59.1887 99.3543 57.928 97.2161 57.928 92.9891C57.928 88.7992 59.201 86.6981 61.228 86.6981C63.2674 86.6981 64.528 88.7869 64.528 92.9891C64.528 97.2161 63.2797 99.3543 61.228 99.3543ZM74.8112 92.4577C77.4809 92.4577 79.0506 90.8509 79.0506 88.0947C79.0506 85.4003 77.4438 83.7565 74.8112 83.7565C72.191 83.7565 70.5719 85.4127 70.5719 88.0947C70.5719 90.8386 72.1416 92.4577 74.8112 92.4577ZM74.8112 90.2453C73.909 90.2453 73.3899 89.4666 73.3899 88.1071C73.3899 86.7846 73.9214 85.9812 74.8112 85.9812C75.6888 85.9812 76.2202 86.7846 76.2202 88.1071C76.2202 89.4543 75.7135 90.2453 74.8112 90.2453ZM76.6405 101.938L88.4933 84.1026H85.6383L73.7854 101.938H76.6405ZM87.4675 102.148C90.1372 102.148 91.7068 100.541 91.7068 97.7847C91.7068 95.0903 90.1001 93.4588 87.4675 93.4588C84.8473 93.4588 83.2281 95.1026 83.2281 97.7847C83.2281 100.541 84.8102 102.148 87.4675 102.148ZM87.4675 99.9352C86.5652 99.9352 86.0585 99.1566 86.0585 97.797C86.0585 96.4745 86.5776 95.6712 87.4675 95.6712C88.3574 95.6712 88.8889 96.4745 88.8889 97.797C88.8889 99.1442 88.3698 99.9352 87.4675 99.9352Z" fill="white"/>
</g>
</g>
<defs>
<filter id="filter0_d" x="0.429688" y="0" width="118.828" height="144.141" filterUnits="userSpaceOnUse" color-interpolation-filters="sRGB">
<feFlood flood-opacity="0" result="BackgroundImageFix"/>
<feColorMatrix in="SourceAlpha" type="matrix" values="0 0 0 0 0 0 0 0 0 0 0 0 0 0 0 0 0 0 127 0"/>
<feOffset dy="4.57031"/>
<feGaussianBlur stdDeviation="2.28516"/>
<feColorMatrix type="matrix" values="0 0 0 0 0 0 0 0 0 0 0 0 0 0 0 0 0 0 0.25 0"/>
<feBlend mode="normal" in2="BackgroundImageFix" result="effect1_dropShadow"/>
<feBlend mode="normal" in="SourceGraphic" in2="effect1_dropShadow" result="shape"/>
</filter>
<clipPath id="clip0">
<rect width="109.688" height="84.375" fill="white" transform="translate(5 25.3125)"/>
</clipPath>
</defs>
</svg>
